HIERARCHY
ROOT Hips
{
	OFFSET 0.000000 0.000000 0.000000
	CHANNELS 6 Xposition Yposition Zposition Zrotation Yrotation Xrotation 
	JOINT LHipJoint
	{
		OFFSET 0.000000 0.000000 0.000000
		CHANNELS 3 Zrotation Yrotation Xrotation
		JOINT LeftUpLeg
		{
			OFFSET 1.363060 -1.794630 0.839290
			CHANNELS 3 Zrotation Yrotation Xrotation
			JOINT LeftLeg
			{
				OFFSET 2.448110 -6.726130 0.000000
				CHANNELS 3 Zrotation Yrotation Xrotation
				JOINT LeftFoot
				{
					OFFSET 2.562200 -7.039590 0.000000
					CHANNELS 3 Zrotation Yrotation Xrotation
					JOINT LeftToeBase
					{
						OFFSET 0.157640 -0.433110 2.322550
						CHANNELS 3 Zrotation Yrotation Xrotation
						End Site
						{
							OFFSET 0.000000 0.000000 0.000000
						}
					}
				}
			}
		}
	}
	JOINT RHipJoint
	{
		OFFSET 0.000000 0.000000 0.000000
		CHANNELS 3 Zrotation Yrotation Xrotation
		JOINT RightUpLeg
		{
			OFFSET -1.305520 -1.794630 0.839290
			CHANNELS 3 Zrotation Yrotation Xrotation
			JOINT RightLeg
			{
				OFFSET -2.542530 -6.985550 0.000000
				CHANNELS 3 Zrotation Yrotation Xrotation
				JOINT RightFoot
				{
					OFFSET -2.568260 -7.056230 0.000000
					CHANNELS 3 Zrotation Yrotation Xrotation
					JOINT RightToeBase
					{
						OFFSET -0.164730 -0.452590 2.363150
						CHANNELS 3 Zrotation Yrotation Xrotation
						End Site
						{
							OFFSET 0.000000 0.000000 0.000000
						}
					}
				}
			}
		}
	}
	JOINT LowerBack
	{
		OFFSET 0.000000 0.000000 0.000000
		CHANNELS 3 Zrotation Yrotation Xrotation
		JOINT Spine
		{
			OFFSET 0.028270 2.035590 -0.193380
			CHANNELS 3 Zrotation Yrotation Xrotation
			JOINT Spine1
			{
				OFFSET 0.056720 2.048850 -0.042750
				CHANNELS 3 Zrotation Yrotation Xrotation
				JOINT Neck
				{
					OFFSET 0.000000 0.000000 0.000000
					CHANNELS 3 Zrotation Yrotation Xrotation
					JOINT Neck1
					{
						OFFSET -0.054170 1.746240 0.172020
						CHANNELS 3 Zrotation Yrotation Xrotation
						JOINT Head
						{
							OFFSET 0.104070 1.761360 -0.123970
							CHANNELS 3 Zrotation Yrotation Xrotation
							End Site
							{
								OFFSET 0.000000 0.000000 0.000000
							}
						}
					}
				}
				JOINT LeftShoulder
				{
					OFFSET 0.000000 0.000000 0.000000
					CHANNELS 3 Zrotation Yrotation Xrotation
					JOINT LeftArm
					{
						OFFSET 3.362410 1.200890 -0.311210
						CHANNELS 3 Zrotation Yrotation Xrotation
						JOINT LeftForeArm
						{
							OFFSET 4.983000 -0.000000 -0.000000
							CHANNELS 3 Zrotation Yrotation Xrotation
							JOINT LeftHand
							{
								OFFSET 3.483560 -0.000000 -0.000000
								CHANNELS 3 Zrotation Yrotation Xrotation
								JOINT LeftFingerBase
								{
									OFFSET 0.000000 0.000000 0.000000
									CHANNELS 3 Zrotation Yrotation Xrotation
									JOINT LeftHandIndex1
									{
										OFFSET 0.715260 -0.000000 -0.000000
										CHANNELS 3 Zrotation Yrotation Xrotation
										End Site
										{
											OFFSET 0.000000 0.000000 0.000000
										}
									}
								}
								JOINT LThumb
								{
									OFFSET 0.000000 0.000000 0.000000
									CHANNELS 3 Zrotation Yrotation Xrotation
									End Site
									{
										OFFSET 0.000000 0.000000 0.000000
									}
								}
							}
						}
					}
				}
				JOINT RightShoulder
				{
					OFFSET 0.000000 0.000000 0.000000
					CHANNELS 3 Zrotation Yrotation Xrotation
					JOINT RightArm
					{
						OFFSET -3.136600 1.374050 -0.404650
						CHANNELS 3 Zrotation Yrotation Xrotation
						JOINT RightForeArm
						{
							OFFSET -5.241900 -0.000000 -0.000000
							CHANNELS 3 Zrotation Yrotation Xrotation
							JOINT RightHand
							{
								OFFSET -3.444170 -0.000000 -0.000000
								CHANNELS 3 Zrotation Yrotation Xrotation
								JOINT RightFingerBase
								{
									OFFSET 0.000000 0.000000 0.000000
									CHANNELS 3 Zrotation Yrotation Xrotation
									JOINT RightHandIndex1
									{
										OFFSET -0.622530 -0.000000 -0.000000
										CHANNELS 3 Zrotation Yrotation Xrotation
										End Site
										{
											OFFSET 0.000000 0.000000 0.000000
										}
									}
								}
								JOINT RThumb
								{
									OFFSET 0.000000 0.000000 0.000000
									CHANNELS 3 Zrotation Yrotation Xrotation
									End Site
									{
										OFFSET 0.000000 0.000000 0.000000
									}
								}
							}
						}
					}
				}
			}
		}
	}
}
MOTION
Frames: 9
Frame Time: 0.008333
0.075605 18.478810 9.105154 -7.877180 -3.506149 9.778631 6.220043 6.103999 3.911011 -13.622439 -31.915622 6.199629 -3.305745 -1.410981 0.908513 -12.258922 37.638565 -17.779048 0.000700 0.176400 0.484500 -0.505786 -4.691375 4.506796 20.615963 25.358157 -4.031873 2.907376 -2.484358 9.152237 6.966868 -21.427851 -1.991062 -0.026100 1.043700 -2.869100 1.502222 -0.931439 -6.825660 18.667143 -5.184421 36.604708 -8.659784 -0.815812 -16.693640 -7.533485 1.877356 -7.688972 7.509282 1.844538 -15.942805 0.859600 -0.171400 -1.615100 -3.719322 -8.745004 -1.248072 -42.170592 -15.521996 70.567613 152.993530 -30.998936 -112.568777 -1.206691 -0.532575 -27.771099 3.599176 -37.042250 -2.969700 -7.125000 0.000000 0.000000 -15.330500 -6.035200 17.464600 7.334533 7.206240 -1.860501 14.630922 13.992781 56.808465 -151.643388 31.522987 -111.915555 3.836936 1.399766 -38.275791 78.503119 -15.736665 -42.107400 7.125000 0.000000 0.000000 43.135000 -6.254400 62.073700 
0.074975 18.478915 9.120485 -8.044768 -3.354793 9.662443 6.270866 6.114348 3.881930 -13.551374 -31.837109 6.360293 -3.303565 -1.414441 0.928107 -12.210913 37.502579 -17.686399 0.000800 0.181400 0.498500 -0.467181 -4.719753 4.526795 20.857344 25.231172 -3.801113 2.919316 -2.451808 9.080133 6.961448 -21.432587 -2.032616 -0.026100 1.043300 -2.867900 1.365351 -0.974917 -6.851331 19.105662 -5.312995 36.295702 -8.754479 -0.910615 -16.820258 -7.498870 1.907635 -7.802339 7.326028 1.841716 -15.138477 0.794000 -0.119900 -1.404500 -3.780091 -8.727098 -1.217691 -42.279425 -15.066395 70.487070 153.002352 -31.029371 -112.569171 -1.197001 -0.542645 -27.875170 4.076166 -36.966758 -3.249300 -7.125000 0.000000 0.000000 -15.078100 -6.000200 17.148200 7.275074 7.224035 -1.848381 14.551092 14.114936 57.212296 -151.579696 31.609640 -111.889715 3.825542 1.402010 -38.711964 77.985158 -15.970520 -41.610800 7.125000 0.000000 0.000000 43.301300 -7.328200 61.273300 
0.073925 18.476815 9.132351 -8.163875 -3.238741 9.506496 6.300266 6.131965 3.869099 -13.539013 -31.760147 6.526327 -3.298463 -1.398531 0.983073 -12.217762 37.488485 -17.537781 0.000000 0.017500 0.048200 -0.451014 -4.748309 4.554373 21.066682 25.093466 -3.555746 2.930684 -2.414443 9.014243 6.943487 -21.388875 -2.102799 -0.026700 1.054600 -2.899100 1.302248 -0.997081 -6.858660 19.265820 -5.372013 36.150452 -8.791337 -0.984800 -17.028375 -7.290836 1.872500 -8.237410 7.115127 1.803513 -13.991604 0.698200 -0.067000 -1.089100 -3.818406 -8.646287 -1.205622 -42.499948 -14.677377 70.428358 152.999262 -31.087933 -112.559782 -1.193091 -0.535256 -27.784413 4.291670 -37.026154 -3.380100 -7.125000 0.000000 0.000000 -14.973000 -6.081500 17.039400 7.251231 7.261196 -1.810023 14.818968 14.198149 57.386167 -151.525661 31.675261 -111.861369 3.802859 1.400834 -38.900746 77.821895 -16.022502 -41.457300 7.125000 0.000000 0.000000 43.347300 -7.605800 61.064000 
0.071405 18.473980 9.140541 -8.192821 -3.216584 9.338126 6.306658 6.152737 3.875844 -13.623109 -31.682347 6.706407 -3.294796 -1.380877 1.036904 -12.254571 37.550541 -17.382941 0.001000 -0.208100 -0.571700 -0.456596 -4.774620 4.586706 21.178827 25.005595 -3.342997 2.935271 -2.392384 8.999049 6.911848 -21.289652 -2.183776 -0.025900 1.038500 -2.854700 1.259285 -0.984351 -6.875307 19.137166 -5.347881 36.176670 -8.748457 -1.030040 -17.364006 -6.959976 1.678678 -9.241651 6.909727 1.633633 -12.008243 0.584000 -0.035100 -0.544200 -3.837849 -8.478128 -1.205920 -42.840995 -14.330331 70.444284 153.008007 -31.158535 -112.551716 -1.192970 -0.510425 -27.603028 4.172639 -37.194763 -3.315200 -7.125000 0.000000 0.000000 -15.053700 -6.247000 17.176600 7.252309 7.346577 -1.739732 15.415707 14.324687 57.369657 -151.472178 31.734090 -111.825691 3.766873 1.401633 -38.901316 77.936122 -15.852550 -41.415300 7.125000 0.000000 0.000000 43.255800 -6.993500 61.563500 
0.066469 18.470200 9.147367 -8.260774 -3.221239 9.246477 6.323476 6.167150 3.879814 -13.615743 -31.609411 6.834052 -3.297358 -1.391982 1.030583 -12.248665 37.530023 -17.396840 0.001200 -0.224400 -0.616700 -0.446989 -4.789062 4.608630 21.295507 24.967467 -3.212217 2.936881 -2.384761 9.001193 6.873178 -21.183437 -2.230535 -0.024500 1.010000 -2.776400 1.130184 -0.965719 -6.984465 19.144834 -5.353532 36.173505 -8.658385 -1.081999 -17.672002 -6.525803 1.376960 -10.547666 6.546042 1.350934 -9.401805 0.434100 -0.020100 0.137500 -3.882942 -8.270770 -1.200758 -43.309916 -13.982181 70.493104 153.021494 -31.238308 -112.549042 -1.191091 -0.486329 -27.495217 4.042083 -37.231834 -3.232100 -7.125000 0.000000 0.000000 -15.132100 -6.285500 17.281500 7.220525 7.472970 -1.641538 16.215413 14.540059 57.303307 -151.405900 31.811773 -111.769768 3.722573 1.410750 -38.843451 78.310934 -15.525564 -41.562800 7.125000 0.000000 0.000000 43.077400 -5.715000 62.559200 
0.059644 18.465265 9.153142 -8.306443 -3.213807 9.217979 6.342689 6.172084 3.879716 -13.628371 -31.699176 6.994602 -3.306933 -1.422236 0.982116 -12.250299 37.553059 -17.622269 0.000200 -0.097500 -0.268000 -0.429181 -4.799911 4.622398 21.357912 24.957293 -3.141361 2.940915 -2.371785 8.970226 6.851874 -21.130126 -2.237851 -0.023200 0.984300 -2.705700 0.919439 -0.940854 -7.086580 19.200912 -5.363949 36.122129 -8.514474 -1.135267 -18.014564 -5.946305 1.048410 -12.072148 5.907512 1.056732 -6.461501 0.224300 0.011000 0.903000 -3.958108 -8.018078 -1.193917 -43.779320 -13.652695 70.663764 152.995341 -31.372272 -112.527255 -1.185941 -0.466920 -27.452298 4.030783 -37.181669 -3.214200 -7.125000 0.000000 0.000000 -15.142900 -6.248600 17.286000 7.179095 7.624702 -1.511343 17.127551 14.690095 57.327245 -151.344346 31.902441 -111.708367 3.673791 1.411449 -38.601902 78.886484 -15.152342 -42.034700 7.125000 0.000000 0.000000 42.888400 -4.208000 63.653400 
0.053554 18.462639 9.156922 -8.256453 -3.219668 9.199833 6.353094 6.168059 3.876028 -13.771893 -31.860481 7.193478 -3.318119 -1.449907 0.932972 -12.293233 37.679319 -17.833666 0.000000 -0.035700 -0.098100 -0.417388 -4.817925 4.633403 21.304563 25.017315 -3.077466 2.947169 -2.352617 8.917647 6.856704 -21.136925 -2.263335 -0.022000 0.957500 -2.632000 0.663193 -0.922173 -7.104288 19.165945 -5.361772 36.067457 -8.323922 -1.173767 -18.397882 -5.470528 0.758208 -13.573742 5.286095 0.838605 -3.730838 0.039600 0.059300 1.634300 -4.026679 -7.770943 -1.185097 -44.148357 -13.373978 70.840263 152.937294 -31.537127 -112.489028 -1.180316 -0.446790 -27.504235 3.887883 -37.183081 -3.119800 -7.125000 0.000000 0.000000 -15.226100 -6.249900 17.388200 7.154043 7.780079 -1.386720 18.010113 14.876948 57.491074 -151.302503 31.975079 -111.659260 3.625457 1.398027 -38.367852 79.278558 -14.928097 -42.474900 7.125000 0.000000 0.000000 42.784600 -3.308100 64.260000 
0.049983 18.462009 9.158917 -8.230545 -3.190951 9.176744 6.365383 6.162789 3.865554 -13.857631 -31.935346 7.321956 -3.324462 -1.471767 0.889794 -12.314184 37.736534 -17.898075 0.000100 -0.051100 -0.140500 -0.405211 -4.832570 4.641704 21.273532 25.037415 -3.025337 2.952840 -2.338255 8.881704 6.846956 -21.102974 -2.321565 -0.020100 0.914500 -2.513500 0.479009 -0.913858 -7.093051 19.189098 -5.370932 35.972784 -8.205561 -1.208067 -18.679756 -5.303620 0.512002 -14.619210 4.910274 0.648389 -1.814488 -0.052700 0.066100 2.153200 -4.076523 -7.617753 -1.170211 -44.438296 -13.172619 71.012032 152.891758 -31.659332 -112.463869 -1.174743 -0.431768 -27.602269 3.669645 -37.106880 -2.975400 -7.125000 0.000000 0.000000 -15.342200 -6.166200 17.510300 7.131477 7.886328 -1.308576 18.762076 15.160511 57.756397 -151.268248 32.034548 -111.610648 3.582777 1.389791 -38.289408 79.544117 -14.778038 -42.795800 7.125000 0.000000 0.000000 42.719300 -2.703600 64.651700 
0.047043 18.460434 9.160072 -8.237047 -3.114758 9.153082 6.374038 6.159662 3.855622 -13.884692 -32.026617 7.412856 -3.327592 -1.483770 0.865461 -12.310246 37.732802 -17.941698 0.000100 -0.054500 -0.149900 -0.397925 -4.838150 4.648229 21.278864 24.928137 -3.013685 2.956758 -2.328711 8.863068 6.817690 -21.018829 -2.351413 -0.020900 0.932800 -2.563900 0.387331 -0.907665 -7.080412 19.206314 -5.372200 35.880517 -8.139180 -1.241890 -18.899011 -5.227264 0.261254 -15.485205 4.628501 0.438029 -0.273277 -0.116700 0.038200 2.577300 -4.118214 -7.500381 -1.156765 -44.689274 -13.055699 71.202374 152.877519 -31.731952 -112.455069 -1.169690 -0.424305 -27.632325 3.657804 -36.986949 -2.955400 -7.125000 0.000000 0.000000 -15.345500 -6.054300 17.487500 7.117458 7.959631 -1.244766 19.416536 15.359744 58.125321 -151.239448 32.094714 -111.566247 3.544864 1.377895 -38.206359 79.760410 -14.687103 -43.140700 7.125000 0.000000 0.000000 42.675600 -2.324700 64.869600 
